<svg width="8" height="8" viewBox="0 0 8 8" fill="none" xmlns="http://www.w3.org/2000/svg">
<path d="M7.168 3.576C7.28933 3.576 7.392 3.618 7.476 3.702C7.56933 3.786 7.616 3.88867 7.616 4.01C7.616 4.13133 7.574 4.23867 7.49 4.332C7.406 4.416 7.29867 4.458 7.168 4.458H4.634V6.978C4.634 7.10867 4.592 7.216 4.508 7.3C4.424 7.384 4.32133 7.426 4.2 7.426C4.07867 7.426 3.976 7.384 3.892 7.3C3.808 7.20667 3.766 7.09933 3.766 6.978V4.458H1.232C1.11067 4.458 1.00333 4.416 0.91 4.332C0.826 4.23867 0.784 4.13133 0.784 4.01C0.784 3.88867 0.826 3.786 0.91 3.702C1.00333 3.618 1.11067 3.576 1.232 3.576H3.766V1.056C3.766 0.925333 3.808 0.817999 3.892 0.733999C3.976 0.640666 4.07867 0.593999 4.2 0.593999C4.32133 0.593999 4.424 0.640666 4.508 0.733999C4.592 0.817999 4.634 0.925333 4.634 1.056V3.576H7.168Z" fill="#333333"/>
</svg>
